<?xml version="1.0" encoding="UTF-8" standalone="no"?>
<!-- Created with Inkscape (http://www.inkscape.org/) -->

<svg
   xmlns:dc="http://purl.org/dc/elements/1.1/"
   xmlns:cc="http://creativecommons.org/ns#"
   xmlns:rdf="http://www.w3.org/1999/02/22-rdf-syntax-ns#"
   xmlns:svg="http://www.w3.org/2000/svg"
   xmlns="http://www.w3.org/2000/svg"
   xmlns:xlink="http://www.w3.org/1999/xlink"
   xmlns:sodipodi="http://sodipodi.sourceforge.net/DTD/sodipodi-0.dtd"
   xmlns:inkscape="http://www.inkscape.org/namespaces/inkscape"
   width="744.09448819"
   height="1052.3622047"
   id="svg2"
   version="1.1"
   inkscape:version="0.48.4 r9939"
   sodipodi:docname="MAT_LocalPrediction.svg">
  <defs
     id="defs4">
    <linearGradient
       id="linearGradient5209">
      <stop
         style="stop-color:#f70000;stop-opacity:1;"
         offset="0"
         id="stop5215" />
      <stop
         id="stop5213"
         offset="1"
         style="stop-color:#f70000;stop-opacity:0;" />
    </linearGradient>
    <marker
       inkscape:stockid="Arrow1Lend"
       orient="auto"
       refY="0.0"
       refX="0.0"
       id="Arrow1Lend"
       style="overflow:visible;">
      <path
         id="path3984"
         d="M 0.0,0.0 L 5.0,-5.0 L -12.5,0.0 L 5.0,5.0 L 0.0,0.0 z "
         style="fill-rule:evenodd;stroke:#000000;stroke-width:1.0pt;"
         transform="scale(0.8) rotate(180) translate(12.5,0)" />
    </marker>
    <marker
       inkscape:stockid="Arrow1Lend"
       orient="auto"
       refY="0"
       refX="0"
       id="Arrow1Lend-1"
       style="overflow:visible">
      <path
         inkscape:connector-curvature="0"
         id="path3984-7"
         d="M 0,0 5,-5 -12.5,0 5,5 0,0 z"
         style="fill-rule:evenodd;stroke:#000000;stroke-width:1pt"
         transform="matrix(-0.8,0,0,-0.8,-10,0)" />
    </marker>
    <marker
       inkscape:stockid="Arrow1Lend"
       orient="auto"
       refY="0"
       refX="0"
       id="Arrow1Lend-15"
       style="overflow:visible">
      <path
         inkscape:connector-curvature="0"
         id="path3984-2"
         d="M 0,0 5,-5 -12.5,0 5,5 0,0 z"
         style="fill-rule:evenodd;stroke:#000000;stroke-width:1pt"
         transform="matrix(-0.8,0,0,-0.8,-10,0)" />
    </marker>
    <linearGradient
       inkscape:collect="always"
       xlink:href="#linearGradient5209-6"
       id="linearGradient5207-3"
       x1="190.94508"
       y1="671.68781"
       x2="495.95279"
       y2="671.68781"
       gradientUnits="userSpaceOnUse" />
    <linearGradient
       id="linearGradient5209-6">
      <stop
         style="stop-color:#f70000;stop-opacity:1;"
         offset="0"
         id="stop5215-2" />
      <stop
         id="stop5213-4"
         offset="1"
         style="stop-color:#f70000;stop-opacity:0;" />
    </linearGradient>
  </defs>
  <sodipodi:namedview
     id="base"
     pagecolor="#ffffff"
     bordercolor="#666666"
     borderopacity="1.0"
     inkscape:pageopacity="0.0"
     inkscape:pageshadow="2"
     inkscape:zoom="1.1282609"
     inkscape:cx="134.1997"
     inkscape:cy="503.64731"
     inkscape:document-units="px"
     inkscape:current-layer="layer1"
     showgrid="false"
     inkscape:window-width="1366"
     inkscape:window-height="706"
     inkscape:window-x="-8"
     inkscape:window-y="-8"
     inkscape:window-maximized="1" />
  <metadata
     id="metadata7">
    <rdf:RDF>
      <cc:Work
         rdf:about="">
        <dc:format>image/svg+xml</dc:format>
        <dc:type
           rdf:resource="http://purl.org/dc/dcmitype/StillImage" />
        <dc:title></dc:title>
      </cc:Work>
    </rdf:RDF>
  </metadata>
  <g
     inkscape:label="Layer 1"
     inkscape:groupmode="layer"
     id="layer1">
    <path
       sodipodi:type="arc"
       style="fill:#ffaaaa;fill-opacity:1;stroke:#000000;stroke-width:2.39000010000000000;stroke-linecap:butt;stroke-linejoin:miter;stroke-miterlimit:4;stroke-opacity:1;stroke-dasharray:none;stroke-dashoffset:0"
       id="path2989"
       sodipodi:cx="128.57143"
       sodipodi:cy="500.93362"
       sodipodi:rx="14.285714"
       sodipodi:ry="14.285714"
       d="m 142.85714,500.93362 a 14.285714,14.285714 0 1 1 -28.57143,0 14.285714,14.285714 0 1 1 28.57143,0 z"
       transform="translate(206.0143,30.715619)" />
    <path
       sodipodi:type="arc"
       style="fill:#c780bf;fill-opacity:0.57647061;stroke:#000000;stroke-width:2.39000010000000000;stroke-linecap:butt;stroke-linejoin:miter;stroke-miterlimit:4;stroke-opacity:1;stroke-dasharray:none;stroke-dashoffset:0"
       id="path2989-1"
       sodipodi:cx="128.57143"
       sodipodi:cy="500.93362"
       sodipodi:rx="14.285714"
       sodipodi:ry="14.285714"
       d="m 142.85714,500.93362 a 14.285714,14.285714 0 1 1 -28.57143,0 14.285714,14.285714 0 1 1 28.57143,0 z"
       transform="matrix(0.64596503,0,0,0.64596503,243.83658,156.37675)" />
    <path
       sodipodi:type="arc"
       style="fill:#b62ff1;fill-opacity:1;stroke:#000000;stroke-width:2.39000010000000000;stroke-linecap:butt;stroke-linejoin:miter;stroke-miterlimit:4;stroke-opacity:1;stroke-dasharray:none;stroke-dashoffset:0"
       id="path2989-7"
       sodipodi:cx="128.57143"
       sodipodi:cy="500.93362"
       sodipodi:rx="14.285714"
       sodipodi:ry="14.285714"
       d="m 142.85714,500.93362 a 14.285714,14.285714 0 1 1 -28.57143,0 14.285714,14.285714 0 1 1 28.57143,0 z"
       transform="matrix(0.64596503,0,0,0.64596503,187.11211,207.78331)" />
    <path
       sodipodi:type="arc"
       style="fill:#250fb9;fill-opacity:1;stroke:#000000;stroke-width:2.39000010000000000;stroke-linecap:butt;stroke-linejoin:miter;stroke-miterlimit:4;stroke-opacity:1;stroke-dasharray:none;stroke-dashoffset:0"
       id="path2989-4"
       sodipodi:cx="128.57143"
       sodipodi:cy="500.93362"
       sodipodi:rx="14.285714"
       sodipodi:ry="14.285714"
       d="m 142.85714,500.93362 a 14.285714,14.285714 0 1 1 -28.57143,0 14.285714,14.285714 0 1 1 28.57143,0 z"
       transform="matrix(0.64596503,0,0,0.64596503,227.88282,303.50586)" />
    <path
       sodipodi:type="arc"
       style="fill:#c780bf;fill-opacity:0.57647061;stroke:#000000;stroke-width:2.39000010000000000;stroke-linecap:butt;stroke-linejoin:miter;stroke-miterlimit:4;stroke-opacity:1;stroke-dasharray:none;stroke-dashoffset:0"
       id="path2989-1-0"
       sodipodi:cx="128.57143"
       sodipodi:cy="500.93362"
       sodipodi:rx="14.285714"
       sodipodi:ry="14.285714"
       d="m 142.85714,500.93362 a 14.285714,14.285714 0 1 1 -28.57143,0 14.285714,14.285714 0 1 1 28.57143,0 z"
       transform="matrix(0.64596503,0,0,0.64596503,301.44738,229.05498)" />
    <path
       sodipodi:type="arc"
       style="fill:#b62ff1;fill-opacity:1;stroke:#000000;stroke-width:2.39000010000000000;stroke-linecap:butt;stroke-linejoin:miter;stroke-miterlimit:4;stroke-opacity:1;stroke-dasharray:none;stroke-dashoffset:0"
       id="path2989-1-0-9"
       sodipodi:cx="128.57143"
       sodipodi:cy="500.93362"
       sodipodi:rx="14.285714"
       sodipodi:ry="14.285714"
       d="m 142.85714,500.93362 a 14.285714,14.285714 0 1 1 -28.57143,0 14.285714,14.285714 0 1 1 28.57143,0 z"
       transform="matrix(0.64596503,0,0,0.64596503,312.96953,276.91625)" />
    <path
       sodipodi:type="arc"
       style="fill:#b62ff1;fill-opacity:1;stroke:#000000;stroke-width:2.39000010000000000;stroke-linecap:butt;stroke-linejoin:miter;stroke-miterlimit:4;stroke-opacity:1;stroke-dasharray:none;stroke-dashoffset:0"
       id="path2989-1-0-9-4"
       sodipodi:cx="128.57143"
       sodipodi:cy="500.93362"
       sodipodi:rx="14.285714"
       sodipodi:ry="14.285714"
       d="m 142.85714,500.93362 a 14.285714,14.285714 0 1 1 -28.57143,0 14.285714,14.285714 0 1 1 28.57143,0 z"
       transform="matrix(0.64596503,0,0,0.64596503,254.47241,260.96249)" />
    <path
       sodipodi:type="arc"
       style="fill:#040dc4;fill-opacity:1;stroke:#000000;stroke-width:2.39000010000000000;stroke-linecap:butt;stroke-linejoin:miter;stroke-miterlimit:4;stroke-opacity:1;stroke-dasharray:none;stroke-dashoffset:0"
       id="path2989-1-0-9-4-8"
       sodipodi:cx="128.57143"
       sodipodi:cy="500.93362"
       sodipodi:rx="14.285714"
       sodipodi:ry="14.285714"
       d="m 142.85714,500.93362 a 14.285714,14.285714 0 1 1 -28.57143,0 14.285714,14.285714 0 1 1 28.57143,0 z"
       transform="matrix(0.64596503,0,0,0.64596503,163.18148,149.28619)" />
    <path
       sodipodi:type="arc"
       style="fill:#ef0404;fill-opacity:1;stroke:#000000;stroke-width:2.39000010000000000;stroke-linecap:butt;stroke-linejoin:miter;stroke-miterlimit:4;stroke-opacity:1;stroke-dasharray:none;stroke-dashoffset:0"
       id="path2989-1-0-9-4-8-8"
       sodipodi:cx="128.57143"
       sodipodi:cy="500.93362"
       sodipodi:rx="14.285714"
       sodipodi:ry="14.285714"
       d="m 142.85714,500.93362 a 14.285714,14.285714 0 1 1 -28.57143,0 14.285714,14.285714 0 1 1 28.57143,0 z"
       transform="matrix(0.64596503,0,0,0.64596503,311.1969,132.44612)" />
    <path
       sodipodi:type="arc"
       style="fill:#250fb9;fill-opacity:1;stroke:#000000;stroke-width:2.39000010000000000;stroke-linecap:butt;stroke-linejoin:miter;stroke-miterlimit:4;stroke-opacity:1;stroke-dasharray:none;stroke-dashoffset:0"
       id="path2989-1-0-9-4-8-8-2"
       sodipodi:cx="128.57143"
       sodipodi:cy="500.93362"
       sodipodi:rx="14.285714"
       sodipodi:ry="14.285714"
       d="m 142.85714,500.93362 a 14.285714,14.285714 0 1 1 -28.57143,0 14.285714,14.285714 0 1 1 28.57143,0 z"
       transform="matrix(0.64596503,0,0,0.64596503,158.74988,253.87194)" />
    <path
       sodipodi:type="arc"
       style="fill:#ef0404;fill-opacity:1;stroke:#000000;stroke-width:2.39000010000000000;stroke-linecap:butt;stroke-linejoin:miter;stroke-miterlimit:4;stroke-opacity:1;stroke-dasharray:none;stroke-dashoffset:0"
       id="path2989-1-0-9-4-8-8-2-4"
       sodipodi:cx="128.57143"
       sodipodi:cy="500.93362"
       sodipodi:rx="14.285714"
       sodipodi:ry="14.285714"
       d="m 142.85714,500.93362 a 14.285714,14.285714 0 1 1 -28.57143,0 14.285714,14.285714 0 1 1 28.57143,0 z"
       transform="matrix(0.64596503,0,0,0.64596503,273.97146,106.74284)" />
    <path
       sodipodi:type="arc"
       style="fill:#ef0404;fill-opacity:1;stroke:#000000;stroke-width:2.39000010000000000;stroke-linecap:butt;stroke-linejoin:miter;stroke-miterlimit:4;stroke-opacity:1;stroke-dasharray:none;stroke-dashoffset:0"
       id="path2989-1-0-9-4-8-8-2-4-5"
       sodipodi:cx="128.57143"
       sodipodi:cy="500.93362"
       sodipodi:rx="14.285714"
       sodipodi:ry="14.285714"
       d="m 142.85714,500.93362 a 14.285714,14.285714 0 1 1 -28.57143,0 14.285714,14.285714 0 1 1 28.57143,0 z"
       transform="matrix(0.64596503,0,0,0.64596503,352.85392,209.55595)" />
    <path
       sodipodi:type="arc"
       style="fill:none;stroke:#f70000;stroke-width:2.3900001;stroke-linecap:butt;stroke-linejoin:miter;stroke-miterlimit:4;stroke-opacity:1;stroke-dasharray:none;stroke-dashoffset:0"
       id="path3167"
       sodipodi:cx="176.37766"
       sodipodi:cy="549.81885"
       sodipodi:rx="79.768784"
       sodipodi:ry="79.768784"
       d="m 256.14644,549.81885 a 79.768784,79.768784 0 1 1 -159.537569,0 79.768784,79.768784 0 1 1 159.537569,0 z"
       transform="translate(158.20807,-18.169604)" />
    <path
       sodipodi:type="arc"
       style="fill:none;stroke:#f70000;stroke-width:2.3900001;stroke-linecap:butt;stroke-linejoin:miter;stroke-miterlimit:4;stroke-opacity:1;stroke-dasharray:none;stroke-dashoffset:0"
       id="path3167-5"
       sodipodi:cx="176.37766"
       sodipodi:cy="549.81885"
       sodipodi:rx="79.768784"
       sodipodi:ry="79.768784"
       d="m 256.14644,549.81885 a 79.768784,79.768784 0 1 1 -159.537569,0 79.768784,79.768784 0 1 1 159.537569,0 z"
       transform="matrix(1.5090408,0,0,1.5090408,68.424652,-298.04983)" />
    <path
       style="fill:none;stroke:#000000;stroke-width:1px;stroke-linecap:butt;stroke-linejoin:miter;stroke-opacity:1;marker-end:url(#Arrow1Lend)"
       d="m 280.07707,531.20611 c 36.33911,1.77264 36.33911,1.77264 36.33911,1.77264"
       id="path3955"
       inkscape:connector-curvature="0" />
    <path
       style="fill:none;stroke:#000000;stroke-width:1px;stroke-linecap:butt;stroke-linejoin:miter;stroke-opacity:1;marker-end:url(#Arrow1Lend)"
       d="m 328.82466,492.20804 c 3.54528,21.27168 3.54528,21.27168 3.54528,21.27168"
       id="path3957"
       inkscape:connector-curvature="0" />
    <path
       style="fill:none;stroke:#000000;stroke-width:1px;stroke-linecap:butt;stroke-linejoin:miter;stroke-opacity:1;marker-end:url(#Arrow1Lend)"
       d="m 373.14066,548.93251 c -23.04432,-8.8632 -23.04432,-8.8632 -23.04432,-8.8632"
       id="path3959"
       inkscape:connector-curvature="0" />
    <path
       style="fill:none;stroke:#000000;stroke-width:1px;stroke-linecap:butt;stroke-linejoin:miter;stroke-opacity:1;marker-end:url(#Arrow1Lend)"
       d="m 336.80154,571.09051 c -0.88632,-21.27168 -0.88632,-21.27168 -0.88632,-21.27168"
       id="path3961"
       inkscape:connector-curvature="0" />
    <path
       style="fill:none;stroke:#000000;stroke-width:1;stroke-linecap:butt;stroke-linejoin:miter;stroke-opacity:1;marker-end:url(#Arrow1Lend);stroke-miterlimit:4;stroke-dasharray:3,3;stroke-dashoffset:0"
       d="m 389.09441,466.50476 c -39.88439,51.40656 -39.88439,51.40656 -39.88439,51.40656"
       id="path3963"
       inkscape:connector-curvature="0" />
    <path
       style="fill:none;stroke:#000000;stroke-width:1.20000005000000010;stroke-linecap:butt;stroke-linejoin:miter;stroke-opacity:1;stroke-miterlimit:4;stroke-dasharray:3.60000014000000010, 3.60000014000000010;stroke-dashoffset:3.24000012999999990;marker-end:url(#Arrow1Lend)"
       d="M 253.48748,571.09051 C 317.3025,541.84195 317.3025,541.84195 317.3025,541.84195"
       id="path3967"
       inkscape:connector-curvature="0" />
    <path
       style="fill:none;stroke:#000000;stroke-width:1.20000005000000010;stroke-linecap:butt;stroke-linejoin:miter;stroke-opacity:1;stroke-miterlimit:4;stroke-dasharray:3.60000014000000010, 3.60000014000000010;stroke-dashoffset:3.24000012999999990;marker-end:url(#Arrow1Lend)"
       d="m 312.87091,614.52018 c 15.95375,-64.70135 15.95375,-64.70135 15.95375,-64.70135"
       id="path3969"
       inkscape:connector-curvature="0" />
    <path
       style="fill:none;stroke:#000000;stroke-width:1.20000005000000010;stroke-linecap:butt;stroke-linejoin:miter;stroke-opacity:1;stroke-miterlimit:4;stroke-dasharray:3.60000014000000010, 3.60000014000000010;stroke-dashoffset:3.24000012999999990;marker-end:url(#Arrow1Lend)"
       d="M 387.32177,589.70322 C 344.77842,547.15987 344.77842,547.15987 344.77842,547.15987"
       id="path3971"
       inkscape:connector-curvature="0" />
    <path
       style="fill:none;stroke:#000000;stroke-width:1.20000005000000010;stroke-linecap:butt;stroke-linejoin:miter;stroke-opacity:1;stroke-miterlimit:4;stroke-dasharray:3.60000014000000010, 3.60000014000000010;stroke-dashoffset:3.24000012999999990;marker-end:url(#Arrow1Lend)"
       d="m 422.77457,532.09243 c -67.36031,-1.77264 -68.24663,-1.77264 -68.24663,-1.77264"
       id="path3973"
       inkscape:connector-curvature="0" />
    <path
       style="fill:none;stroke:#000000;stroke-width:1.20000005000000010;stroke-linecap:butt;stroke-linejoin:miter;stroke-opacity:1;stroke-miterlimit:4;stroke-dasharray:3.60000014000000010, 3.60000014000000010;stroke-dashoffset:3.24000012999999990;marker-end:url(#Arrow1Lend)"
       d="M 355.41426,443.46045 C 341.23314,512.5934 341.23314,512.5934 341.23314,512.5934"
       id="path3975"
       inkscape:connector-curvature="0" />
    <path
       style="fill:none;stroke:#000000;stroke-width:1.20000005;stroke-linecap:butt;stroke-linejoin:miter;stroke-miterlimit:4;stroke-opacity:1;stroke-dasharray:3.60000014, 3.60000014;stroke-dashoffset:3.24000013;marker-end:url(#Arrow1Lend)"
       d="m 258.58218,481.5722 c 51.40655,33.68016 56.72447,38.11176 56.72447,38.11176"
       id="path3975-7"
       inkscape:connector-curvature="0"
       sodipodi:nodetypes="cc" />
  </g>
</svg>
